#N canvas 448 326 778 389 12;
#X obj 35 38 r amp-env;
#X obj 80 345 s message-out;
#X text 369 62 Arg1: bulb name;
#X text 366 90 Arg2: root hue;
#X text 371 119 Arg3: shift amt;
#X text 362 147 Arg4: smooth time in ms;
#X obj 28 129 * \$3;
#X obj 28 153 + \$2;
#X obj 28 253 symbol \$1;
#X obj 28 281 pack s 0 \$4, f 13;
#X obj 28 227 t b a;
#X msg 80 313 \$1 \$2 65535 65535 3500 \$3;
#X obj 119 27 inlet;
#X obj 33 64 spigot 0;
#X obj 28 177 max 0;
#X obj 28 201 % 65535;
#X obj 186 53 inlet;
#X obj 186 77 route root change;
#X obj 187 175 s \$0-root;
#X obj 186 142 clip 0 65535;
#X connect 0 0 13 0;
#X connect 6 0 7 0;
#X connect 7 0 14 0;
#X connect 8 0 9 0;
#X connect 9 0 11 0;
#X connect 10 0 8 0;
#X connect 10 1 9 1;
#X connect 11 0 1 0;
#X connect 12 0 13 1;
#X connect 13 0 6 0;
#X connect 14 0 15 0;
#X connect 15 0 10 0;
#X connect 16 0 17 0;
#X connect 17 0 19 0;
#X connect 19 0 18 0;
