#N canvas 155 88 844 625 12;
#X obj 103 39 inlet;
#X obj 102 197 sel 0;
#X obj 148 226 + 1;
#X obj 102 283 sel 0 1;
#X obj 86 575 s message-out;
#X obj 345 574 s message-out;
#X obj 148 250 == 1;
#X obj 102 224 i 1;
#X text 329 26 arg1: root hue;
#X text 329 46 arg2: change;
#X text 329 68 arg3: offset;
#X obj 102 133 + \$3;
#X obj 102 173 % \$4;
#X text 325 92 arg4: time;
#X text 330 116 arg5: bulb;
#X msg 86 521 \$2 \$1 65535 65535 3500 \$3;
#X obj 342 426 i \$1;
#X obj 342 450 + \$2;
#X msg 345 550 \$2 \$1 65535 65535 3500 \$3;
#X obj 107 430 symbol \$5;
#X obj 406 470 symbol \$5;
#X obj 344 391 t b b b, f 16;
#X obj 84 374 t b b b;
#X text 326 142 arg6: transition ms;
#X obj 487 473 f \$6;
#X obj 345 519 pack \$1 s 0;
#X obj 86 478 pack \$1 s 0;
#X obj 191 430 f \$6;
#X obj 168 39 inlet;
#X obj 168 63 route root change;
#X obj 169 161 s \$0-root;
#X obj 168 128 clip 0 65535;
#X obj 342 474 % 65535;
#X floatatom 44 248 5 0 0 0 - - - 0;
#X obj 371 281 bng 19 250 50 0 empty empty empty 0 -10 0 12 #fcfcfc #000000 #000000;
#X connect 0 0 11 0;
#X connect 1 0 7 0;
#X connect 2 0 6 0;
#X connect 3 0 22 0;
#X connect 3 1 21 0;
#X connect 6 0 7 1;
#X connect 7 0 2 0;
#X connect 7 0 3 0;
#X connect 7 0 33 0;
#X connect 11 0 12 0;
#X connect 12 0 1 0;
#X connect 15 0 4 0;
#X connect 16 0 17 0;
#X connect 17 0 32 0;
#X connect 18 0 5 0;
#X connect 19 0 26 1;
#X connect 20 0 25 1;
#X connect 21 0 16 0;
#X connect 21 1 20 0;
#X connect 21 2 24 0;
#X connect 22 0 26 0;
#X connect 22 1 19 0;
#X connect 22 2 27 0;
#X connect 24 0 25 2;
#X connect 25 0 18 0;
#X connect 26 0 15 0;
#X connect 27 0 26 2;
#X connect 28 0 29 0;
#X connect 29 0 31 0;
#X connect 31 0 30 0;
#X connect 32 0 25 0;
