#N canvas 0 25 729 615 12;
#X obj 230 62 0;
#X obj 42 505 outlet;
#X text 97 506 min;
#X obj 230 13 inlet;
#X text 274 15 reset;
#X obj 42 13 inlet;
#X text 90 15 0-off-1-on;
#X obj 230 38 t b, f 6;
#X obj 42 159 f, f 12;
#X obj 190 160 + 1;
#X obj 230 86 t f f;
#X obj 42 99 metro 100;
#X obj 462 305 t a a, f 10;
#X obj 462 359 * 0.01;
#X obj 462 329 % 60;
#X obj 546 367 / 60;
#X obj 546 391 i;
#X text 547 303 minutes;
#X text 556 214 seconds;
#X obj 461 185 t a a, f 10;
#X obj 545 271 i;
#X text 546 183 minutes;
#X obj 461 209 % 10;
#X obj 461 263 +;
#X obj 545 247 / 10;
#X obj 461 239 * 0.01;
#X connect 0 0 10 0;
#X connect 3 0 7 0;
#X connect 5 0 11 0;
#X connect 7 0 0 0;
#X connect 8 0 9 0;
#X connect 8 0 1 0;
#X connect 9 0 8 1;
#X connect 10 0 8 1;
#X connect 11 0 8 0;
#X connect 12 0 14 0;
#X connect 12 1 15 0;
#X connect 14 0 13 0;
#X connect 15 0 16 0;
#X connect 19 0 22 0;
#X connect 19 1 24 0;
#X connect 20 0 23 1;
#X connect 22 0 25 0;
#X connect 23 0 12 0;
#X connect 24 0 20 0;
#X connect 25 0 23 0;
