#N canvas 189 119 1174 444 12;
#X msg 534 333 50000 65535 65535 10000 20000;
#X text 526 12 [hue (0-65535) \, saturation (0-65535) \, brightness (0-65535) \, Kelvin (2500-9000)], f 82;
#X text 464 14 first 4:;
#X text 467 39 arg 5: transistion in ms;
#X obj 539 205 hsl 162 19 0 127 0 0 empty empty empty -2 -10 0 12 #fcfcfc #000000 #000000 0 1;
#X obj 536 229 / 127;
#X obj 536 253 * 65535;
#X msg 549 367 3000 65535 \$1 3500 100;
#N canvas 746 200 450 300 connect2python 0;
#X obj 34 165 oscformat /bulb1/set_color;
#X msg 158 92 connect localhost 9000;
#X obj 33 240 netsend -u -b;
#X obj 34 103 r message-out;
#X obj 158 30 loadbang;
#X obj 158 54 del 5000;
#X connect 0 0 2 0;
#X connect 1 0 2 0;
#X connect 3 0 0 0;
#X connect 4 0 5 0;
#X connect 5 0 1 0;
#X restore 14 16 pd connect2python;
#X obj 109 213 readsf~ 2;
#X obj 106 337 dac~ 1 2;
#X obj 113 284 *~;
#X obj 156 284 *~;
#X obj 216 243 lop~ 5;
#X obj 216 151 loadbang;
#X obj 216 175 f 0.5;
#X obj 216 199 clip 0 0.9;
#X connect 4 0 5 0;
#X connect 5 0 6 0;
#X connect 6 0 7 0;
#X connect 9 0 11 0;
#X connect 9 1 12 0;
#X connect 11 0 10 0;
#X connect 12 0 10 1;
#X connect 13 0 11 1;
#X connect 13 0 12 1;
#X connect 14 0 15 0;
#X connect 15 0 16 0;
#X connect 16 0 13 0;
