#N canvas 67 25 1252 748 12;
#N canvas 494 148 653 599 connect2python 0;
#X msg 248 117 connect localhost 9000;
#X obj 259 508 netsend -u -b;
#X obj 158 18 loadbang;
#X obj 157 47 del 5000;
#X obj 157 164 s init;
#X msg 241 168 \; pd dsp 1;
#X obj 157 71 t b b, f 13;
#X obj 157 109 del 5000;
#X obj 157 133 t b b, f 11;
#X obj 341 249 list split 1;
#X obj 394 416 list store;
#X obj 341 317 makefilename /%s/set_color;
#X obj 342 212 r message-out;
#X obj 341 341 list prepend set;
#X obj 341 365 list trim;
#X obj 373 459 oscformat;
#X obj 341 389 t b a;
#X obj 113 48 bng 19 250 50 0 empty empty empty 0 -10 0 12 #fcfcfc #000000 #000000;
#X connect 0 0 1 0;
#X connect 2 0 3 0;
#X connect 3 0 6 0;
#X connect 6 0 7 0;
#X connect 6 1 0 0;
#X connect 7 0 8 0;
#X connect 8 0 4 0;
#X connect 8 1 5 0;
#X connect 9 0 11 0;
#X connect 9 1 10 1;
#X connect 10 0 15 0;
#X connect 11 0 13 0;
#X connect 12 0 9 0;
#X connect 13 0 14 0;
#X connect 14 0 16 0;
#X connect 15 0 1 0;
#X connect 16 0 10 0;
#X connect 16 1 15 0;
#X connect 17 0 3 0;
#X restore 14 16 pd connect2python;
#X obj 140 664 dac~ 1 2, f 14;
#X obj 140 613 *~;
#X obj 235 619 *~;
#X obj 292 570 lop~ 5;
#X obj 362 254 f 0.5;
#X obj 362 278 clip 0 0.9;
#X obj 42 81 t b b b, f 34;
#X obj 42 117 s start-composition;
#X obj 140 340 readsf~ 2;
#N canvas 172 30 743 813 composition 0;
#X obj 107 332 j-timer-seconds;
#X obj 107 297 i 1;
#X obj 44 43 r stop;
#X obj 44 217 i 0;
#X obj 107 366 list prepend 0;
#X obj 107 390 list trim;
#N canvas 292 103 811 735 intro 0;
#X obj 103 39 inlet;
#X floatatom 124 83 5 0 0 0 - - - 0;
#X obj 152 56 bng 19 250 50 0 empty empty empty 0 -10 0 12 #fcfcfc #000000 #000000;
#X text 181 57 177;
#X text 243 58 430;
#X obj 61 155 moses 177;
#X obj 131 194 moses 430;
#X obj 59 349 i;
#X obj 509 201 s message-out;
#X msg 509 169 bulb1 3000 65535 65535 3500 100;
#X obj 126 254 i 1;
#X obj 128 228 t b;
#X obj 205 223 t b;
#X obj 205 247 i 0;
#X obj 126 278 change -1;
#X obj 59 503 t a a a a a a, f 30;
#X text 341 100 all lights on;
#X obj 391 233 t a a a a a a, f 30;
#X obj 391 416 amplitude-env bulb1 0 5000 50;
#X obj 432 378 amplitude-env bulb2 10000 5000 50;
#X obj 473 343 amplitude-env bulb3 20000 5000 50;
#X obj 515 316 amplitude-env bulb4 30000 5000 50;
#X obj 557 284 amplitude-env bulb5 40000 5000 50;
#X obj 598 259 amplitude-env bulb6 50000 5000 50;
#X obj 59 686 flash 0 6000 0 10 bulb1 150;
#X obj 100 648 flash 10000 6000 2 10 bulb2 150;
#X obj 141 613 flash 20000 6000 4 10 bulb3 150;
#X obj 183 586 flash 30000 6000 6 10 bulb4 150;
#X obj 225 554 flash 40000 6000 8 10 bulb5 150;
#X obj 266 529 flash 50000 6000 0 10 bulb6 150;
#X connect 0 0 5 0;
#X connect 0 0 1 0;
#X connect 2 0 1 0;
#X connect 5 0 7 0;
#X connect 5 1 6 0;
#X connect 6 0 11 0;
#X connect 6 1 7 0;
#X connect 6 1 12 0;
#X connect 7 0 15 0;
#X connect 9 0 8 0;
#X connect 10 0 14 0;
#X connect 11 0 10 0;
#X connect 12 0 13 0;
#X connect 13 0 14 0;
#X connect 14 0 17 0;
#X connect 15 0 24 0;
#X connect 15 1 25 0;
#X connect 15 2 26 0;
#X connect 15 3 27 0;
#X connect 15 4 28 0;
#X connect 15 5 29 0;
#X connect 17 0 18 0;
#X connect 17 1 19 0;
#X connect 17 2 20 0;
#X connect 17 3 21 0;
#X connect 17 4 22 0;
#X connect 17 5 23 0;
#X restore 107 510 pd intro;
#N canvas 413 171 912 686 (subpatch) 0;
#X obj 109 127 inlet;
#X obj 166 309 i 1;
#X floatatom 159 172 5 0 0 0 - - - 0;
#X obj 108 247 sel 0 10 102 440 599 755 1243;
#X obj 287 303 i 0;
#X obj 391 178 s message-out;
#X obj 288 167 s all-off;
#X obj 287 45 r set-play-order;
#X obj 287 93 t b b;
#X obj 287 69 sel 2;
#X msg 288 132 1;
#X msg 391 146 bulb1 0 65535 65535 3500 100;
#X obj 167 361 amplitude-env bulb1 0 5000 50;
#X connect 0 0 2 0;
#X connect 0 0 3 0;
#X connect 1 0 12 0;
#X connect 3 2 1 0;
#X connect 3 6 4 0;
#X connect 4 0 12 0;
#X connect 7 0 9 0;
#X connect 8 0 10 0;
#X connect 8 1 11 0;
#X connect 9 0 8 0;
#X connect 10 0 6 0;
#X connect 11 0 5 0;
#X restore 148 468 pd 1;
#N canvas 439 186 912 686 (subpatch) 0;
#X obj 308 145 s message-out;
#X obj 109 127 inlet;
#X obj 205 134 s all-off;
#X msg 205 99 2;
#X obj 106 364 i 1;
#X obj 155 366 i 0;
#X floatatom 126 152 5 0 0 0 - - - 0;
#X obj 588 213 i 65535;
#X obj 588 237 / 6;
#X floatatom 588 261 14 0 0 0 - - - 0;
#X obj 552 160 bng 19 250 50 0 empty empty empty 0 -10 0 12 #fcfcfc #000000 #000000;
#X msg 308 113 bulb2 12000 65535 65535 3500 100;
#X text 331 303 every 10 is like 120bpm;
#X obj 287 326 flash 12000 6000 0 10 bulb6 300;
#X obj 107 246 sel 0 10 255 357 446 1091, f 28;
#X obj 204 12 r set-play-order;
#X obj 204 36 sel 3;
#X obj 204 60 t b b;
#X obj 107 416 amplitude-env bulb2 10000 5000 50;
#X connect 1 0 6 0;
#X connect 1 0 14 0;
#X connect 3 0 2 0;
#X connect 4 0 18 0;
#X connect 5 0 18 0;
#X connect 7 0 8 0;
#X connect 8 0 9 0;
#X connect 10 0 7 0;
#X connect 11 0 0 0;
#X connect 14 0 4 0;
#X connect 14 5 5 0;
#X connect 15 0 16 0;
#X connect 16 0 17 0;
#X connect 17 0 3 0;
#X connect 17 1 11 0;
#X restore 197 471 pd 2;
#N canvas 307 143 912 686 (subpatch) 0;
#X obj 109 127 inlet;
#X floatatom 137 171 5 0 0 0 - - - 0;
#X obj 107 246 sel 0 255 357 446 955, f 28;
#X obj 391 178 s message-out;
#X obj 288 167 s all-off;
#X obj 287 45 r set-play-order;
#X obj 287 93 t b b;
#X obj 287 69 sel 4;
#X msg 288 132 3;
#X obj 105 345 i 1;
#X obj 154 347 i 0;
#X obj 106 397 amplitude-env bulb3 20000 5000 50;
#X msg 391 146 bulb3 20000 65535 65535 3500 100;
#X connect 0 0 1 0;
#X connect 0 0 2 0;
#X connect 2 0 9 0;
#X connect 2 4 10 0;
#X connect 5 0 7 0;
#X connect 6 0 8 0;
#X connect 6 1 12 0;
#X connect 7 0 6 0;
#X connect 8 0 4 0;
#X connect 9 0 11 0;
#X connect 10 0 11 0;
#X connect 12 0 3 0;
#X restore 250 468 pd 3;
#N canvas 528 118 912 686 (subpatch) 0;
#X obj 109 127 inlet;
#X floatatom 143 175 5 0 0 0 - - - 0;
#X obj 107 246 sel 0 255 357 446 900 1054, f 28;
#X obj 391 178 s message-out;
#X obj 288 167 s all-off;
#X obj 287 45 r set-play-order;
#X obj 287 93 t b b;
#X obj 287 69 sel 5;
#X msg 288 132 4;
#X obj 121 336 i 1;
#X obj 170 338 i 0;
#X obj 122 388 amplitude-env bulb4 30000 5000 50;
#X obj 366 90 bng 19 250 50 0 empty empty empty 0 -10 0 12 #fcfcfc #000000 #000000;
#X msg 391 146 bulb4 30000 65535 65535 3500 100;
#X connect 0 0 1 0;
#X connect 0 0 2 0;
#X connect 2 0 9 0;
#X connect 2 5 10 0;
#X connect 5 0 7 0;
#X connect 6 0 8 0;
#X connect 6 1 13 0;
#X connect 7 0 6 0;
#X connect 8 0 4 0;
#X connect 9 0 11 0;
#X connect 10 0 11 0;
#X connect 12 0 6 0;
#X connect 13 0 3 0;
#X restore 297 464 pd 4;
#N canvas 629 69 912 686 (subpatch) 0;
#X obj 107 466 s message-out;
#X obj 109 127 inlet;
#X floatatom 145 172 5 0 0 0 - - - 0;
#X obj 107 246 sel 0 290 390 620 792, f 28;
#X obj 391 178 s message-out;
#X obj 288 167 s all-off;
#X obj 287 45 r set-play-order;
#X obj 287 93 t b b;
#X obj 287 69 sel 6;
#X msg 288 132 5;
#X msg 107 434 bulb5 40000 65535 65535 3500 100;
#X msg 391 146 bulb5 40000 65535 65535 3500 100;
#X obj 166 309 i 1;
#X obj 287 303 i 0;
#X obj 167 361 amplitude-env bulb5 40000 5000 50;
#X connect 1 0 2 0;
#X connect 1 0 3 0;
#X connect 3 0 10 0;
#X connect 3 1 12 0;
#X connect 3 4 13 0;
#X connect 6 0 8 0;
#X connect 7 0 9 0;
#X connect 7 1 11 0;
#X connect 8 0 7 0;
#X connect 9 0 5 0;
#X connect 10 0 0 0;
#X connect 11 0 4 0;
#X connect 12 0 14 0;
#X connect 13 0 14 0;
#X restore 346 467 pd 5;
#N canvas 7 135 912 686 (subpatch) 0;
#X obj 109 127 inlet;
#X floatatom 199 183 5 0 0 0 - - - 0;
#X obj 166 309 i 1;
#X obj 287 303 i 0;
#X obj 107 246 sel 0 180 357 446 1259, f 28;
#X obj 391 178 s message-out;
#X obj 288 167 s all-off;
#X obj 287 45 r set-play-order;
#X obj 287 93 t b b;
#X obj 287 69 sel 7;
#X msg 288 132 6;
#X msg 391 146 bulb6 50000 65535 65535 3500 100;
#X obj 167 361 amplitude-env bulb6 50000 5000 50;
#X connect 0 0 1 0;
#X connect 0 0 4 0;
#X connect 2 0 12 0;
#X connect 3 0 12 0;
#X connect 4 1 2 0;
#X connect 4 5 3 0;
#X connect 7 0 9 0;
#X connect 8 0 10 0;
#X connect 8 1 11 0;
#X connect 9 0 8 0;
#X connect 10 0 6 0;
#X connect 11 0 5 0;
#X restore 399 464 pd 6;
#N canvas 63 88 1070 749 outro 0;
#X obj 62 45 inlet;
#X obj 61 155 moses 177;
#X obj 131 194 moses 430;
#X obj 59 349 i;
#X obj 126 254 i 1;
#X obj 128 228 t b;
#X obj 205 223 t b;
#X obj 205 247 i 0;
#X obj 126 278 change -1;
#X obj 59 503 t a a a a a a, f 30;
#X obj 59 686 flash 0 6000 0 30 bulb1 150;
#X obj 100 648 flash 10000 6000 5 30 bulb2 150;
#X obj 141 613 flash 20000 6000 10 30 bulb3 150;
#X obj 183 586 flash 30000 6000 15 30 bulb4 150;
#X obj 225 554 flash 40000 6000 20 30 bulb5 150;
#X obj 266 529 flash 50000 6000 25 30 bulb6 150;
#X floatatom 129 117 5 0 0 0 - - - 0;
#X obj 391 233 t a a a a a a, f 30;
#X obj 391 416 amplitude-env bulb1 0 5000 50;
#X obj 432 378 amplitude-env bulb2 10000 5000 50;
#X obj 473 343 amplitude-env bulb3 20000 5000 50;
#X obj 515 316 amplitude-env bulb4 30000 5000 50;
#X obj 557 284 amplitude-env bulb5 40000 5000 50;
#X obj 598 259 amplitude-env bulb6 50000 5000 50;
#X connect 0 0 1 0;
#X connect 0 0 16 0;
#X connect 1 0 3 0;
#X connect 1 1 2 0;
#X connect 2 0 5 0;
#X connect 2 1 3 0;
#X connect 2 1 6 0;
#X connect 3 0 9 0;
#X connect 4 0 8 0;
#X connect 5 0 4 0;
#X connect 6 0 7 0;
#X connect 7 0 8 0;
#X connect 8 0 17 0;
#X connect 9 0 10 0;
#X connect 9 1 11 0;
#X connect 9 2 12 0;
#X connect 9 3 13 0;
#X connect 9 4 14 0;
#X connect 9 5 15 0;
#X connect 17 0 18 0;
#X connect 17 1 19 0;
#X connect 17 2 20 0;
#X connect 17 3 21 0;
#X connect 17 4 22 0;
#X connect 17 5 23 0;
#X restore 444 505 pd outro;
#X obj 107 414 route 1 2 3 4 5 6 7 8, f 53;
#X text 133 578 [hue (0-65535) \, saturation (0-65535) \, brightness (0-65535) \, Kelvin (2500-9000)], f 82;
#X text 71 580 first 4:;
#X text 74 605 arg 5: transistion in ms;
#X obj 93 145 del 3000;
#X obj 95 182 i;
#X obj 109 26 t b a b, f 21;
#X obj 156 302 i 0;
#X obj 93 208 t b a b;
#X floatatom 37 377 5 0 0 0 - - - 0;
#X obj 109 2 r set-play-order;
#X obj 231 364 s play-order;
#X text 179 145 3 seconds of delay between each file;
#X connect 0 0 4 0;
#X connect 0 0 23 0;
#X connect 1 0 0 0;
#X connect 2 0 3 0;
#X connect 3 0 0 0;
#X connect 4 0 5 0;
#X connect 5 0 14 0;
#X connect 14 0 6 0;
#X connect 14 1 7 0;
#X connect 14 2 8 0;
#X connect 14 3 9 0;
#X connect 14 4 10 0;
#X connect 14 5 11 0;
#X connect 14 6 12 0;
#X connect 14 7 13 0;
#X connect 18 0 19 0;
#X connect 19 0 22 0;
#X connect 20 0 18 0;
#X connect 20 1 19 1;
#X connect 20 2 21 0;
#X connect 21 0 0 0;
#X connect 22 0 1 0;
#X connect 22 1 4 1;
#X connect 22 1 25 0;
#X connect 22 2 0 1;
#X connect 24 0 20 0;
#X restore 404 127 pd composition;
#X obj 42 57 r init;
#X msg 270 302 stop;
#X obj 411 178 bng 19 250 50 0 empty empty empty 0 -10 0 12 #fcfcfc #000000 #000000;
#X obj 411 202 s stop;
#X obj 270 272 r stop;
#X obj 421 453 i;
#X obj 461 454 + 1;
#X obj 401 416 t b;
#X obj 439 395 r start-composition;
#X obj 535 221 s start-composition;
#N canvas 63 88 556 300 play-control 0;
#X obj 152 264 outlet;
#X obj 152 206 list prepend open;
#X obj 152 230 list trim;
#X obj 84 208 t b a;
#X obj 80 9 inlet;
#X msg 84 232 start;
#X obj 79 47 select 1 2 3 4 5 6 7 8, f 52;
#X msg 109 98 1.wav;
#X msg 157 96 2.wav;
#X msg 209 98 3.wav;
#X msg 257 96 4.wav;
#X msg 309 97 5.wav;
#X msg 357 95 6.wav;
#X msg 403 115 outro.wav;
#X msg 37 118 intro.wav;
#X connect 1 0 2 0;
#X connect 2 0 0 0;
#X connect 3 0 5 0;
#X connect 3 1 1 0;
#X connect 4 0 6 0;
#X connect 5 0 0 0;
#X connect 6 0 14 0;
#X connect 6 1 7 0;
#X connect 6 2 8 0;
#X connect 6 3 9 0;
#X connect 6 4 10 0;
#X connect 6 5 11 0;
#X connect 6 6 12 0;
#X connect 6 7 13 0;
#X connect 7 0 3 0;
#X connect 8 0 3 0;
#X connect 9 0 3 0;
#X connect 10 0 3 0;
#X connect 11 0 3 0;
#X connect 12 0 3 0;
#X connect 13 0 3 0;
#X connect 14 0 3 0;
#X restore 140 300 pd play-control;
#X obj 140 273 r play-order;
#N canvas 63 88 691 495 all-off 0;
#X obj 296 12 r all-off;
#X obj 271 399 s message-out;
#X obj 286 212 until;
#X obj 286 139 t a b;
#X obj 286 179 max 1;
#X obj 339 179 i 1;
#X obj 286 236 i, f 9;
#X obj 374 237 + 1;
#X obj 286 260 sel 0, f 21;
#X obj 296 57 t b a;
#X obj 296 81 i 6;
#X msg 271 367 bulb\$1 3000 0 0 3500 3000;
#X connect 0 0 9 0;
#X connect 2 0 6 0;
#X connect 3 0 4 0;
#X connect 3 1 5 0;
#X connect 4 0 2 0;
#X connect 5 0 6 1;
#X connect 6 0 7 0;
#X connect 6 0 8 0;
#X connect 7 0 6 1;
#X connect 8 1 11 0;
#X connect 9 0 10 0;
#X connect 9 1 8 1;
#X connect 10 0 3 0;
#X connect 11 0 1 0;
#X restore 164 18 pd all-off;
#X obj 331 35 r play-order;
#X floatatom 331 59 5 0 0 0 - - - 0;
#X obj 46 199 i 1;
#X obj 439 419 i 2;
#X obj 28 454 env~;
#X obj 28 543 s amp-env;
#X obj 28 478 - 50;
#X obj 28 502 / 50;
#X obj 46 171 r start-composition;
#X obj 471 545 s restart-loop;
#X obj 421 599 s set-play-order;
#X obj 46 223 s set-play-order;
#N canvas 121 146 1015 577 manually-set-lights 0;
#N canvas 124 271 1199 601 manually-set-lights 0;
#X obj 194 169 hsl 162 19 0 127 0 0 empty empty empty -2 -10 0 12 #fcfcfc #000000 #000000 0 1;
#X obj 279 253 / 127;
#X obj 279 277 * 65535;
#X obj 281 492 s message-out;
#X obj 354 329 t b a;
#X obj 377 174 hsl 162 19 0 127 0 0 empty empty empty -2 -10 0 12 #fcfcfc #000000 #000000 0 1;
#X obj 354 280 / 127;
#X obj 354 304 * 65535;
#X obj 533 263 t b a;
#X obj 536 190 hsl 162 19 0 127 0 0 empty empty empty -2 -10 0 12 #fcfcfc #000000 #000000 0 1;
#X obj 533 214 / 127;
#X obj 533 238 * 65535;
#X obj 490 310 s bang-list;
#X obj 205 292 r bang-list;
#X obj 631 285 t b a;
#X obj 634 212 hsl 162 19 0 127 0 0 empty empty empty -2 -10 0 12 #fcfcfc #000000 #000000 0 1;
#X obj 631 236 / 127;
#X obj 588 332 s bang-list;
#X obj 825 314 t b a;
#X obj 828 241 hsl 162 19 0 127 0 0 empty empty empty -2 -10 0 12 #fcfcfc #000000 #000000 0 1;
#X obj 825 265 / 127;
#X obj 782 361 s bang-list;
#X obj 825 289 * 9000;
#X obj 631 260 * 9000;
#X obj 279 409 list prepend bulb1;
#X obj 279 433 list trim;
#X msg 73 231 bulb\$1;
#X obj 73 108 / 127;
#X obj 73 156 + 0.49999;
#X obj 73 180 i;
#X obj 99 44 hsl 162 19 0 127 0 0 empty empty empty -2 -10 0 12 #fcfcfc #000000 #000000 0 1;
#X obj 73 204 + 1;
#X obj 73 132 * 5;
#X obj 51 24 inlet;
#X text 102 20 set bulb;
#X obj 275 123 inlet;
#X text 329 125 hue;
#X obj 394 138 inlet;
#X text 448 142 saturation;
#X obj 588 125 inlet;
#X text 642 129 brightnesse;
#X obj 724 161 inlet;
#X text 778 165 Kelvin;
#X obj 851 174 inlet;
#X text 905 178 time;
#X obj 279 363 pack 0 65535 65535 9000 1000, f 64;
#X obj 145 430 list store;
#X obj 145 454 print see-vals;
#X obj 137 381 bng 19 250 50 0 empty empty empty 0 -10 0 12 #fcfcfc #000000 #000000;
#X obj 27 360 outlet;
#X connect 0 0 1 0;
#X connect 1 0 2 0;
#X connect 2 0 45 0;
#X connect 4 0 45 0;
#X connect 4 1 45 1;
#X connect 5 0 6 0;
#X connect 6 0 7 0;
#X connect 7 0 4 0;
#X connect 8 0 12 0;
#X connect 8 1 45 2;
#X connect 9 0 10 0;
#X connect 10 0 11 0;
#X connect 11 0 8 0;
#X connect 13 0 45 0;
#X connect 14 0 17 0;
#X connect 14 1 45 3;
#X connect 15 0 16 0;
#X connect 16 0 23 0;
#X connect 18 0 21 0;
#X connect 18 1 45 4;
#X connect 19 0 20 0;
#X connect 20 0 22 0;
#X connect 22 0 18 0;
#X connect 23 0 14 0;
#X connect 24 0 25 0;
#X connect 25 0 3 0;
#X connect 26 0 24 1;
#X connect 27 0 32 0;
#X connect 28 0 29 0;
#X connect 29 0 31 0;
#X connect 30 0 27 0;
#X connect 31 0 26 0;
#X connect 31 0 49 0;
#X connect 32 0 28 0;
#X connect 33 0 27 0;
#X connect 35 0 1 0;
#X connect 37 0 6 0;
#X connect 39 0 10 0;
#X connect 41 0 16 0;
#X connect 43 0 19 0;
#X connect 45 0 24 0;
#X connect 45 0 46 1;
#X connect 46 0 47 0;
#X connect 48 0 46 0;
#X restore 81 287 pd manually-set-lights;
#X f 43;
#X obj 70 73 vsl 19 162 0 127 0 0 empty empty empty 0 -9 0 12 #fcfcfc #000000 #000000 0 1;
#X obj 120 66 vsl 19 162 0 127 0 0 empty empty empty 0 -9 0 12 #fcfcfc #000000 #000000 0 1;
#X floatatom 81 311 5 0 0 0 - - - 0;
#X obj 169 61 vsl 19 162 0 127 0 0 empty empty empty 0 -9 0 12 #fcfcfc #000000 #000000 0 1;
#X obj 215 60 vsl 19 162 0 127 0 0 empty empty empty 0 -9 0 12 #fcfcfc #000000 #000000 0 1;
#X obj 272 66 vsl 19 162 0 127 0 0 empty empty empty 0 -9 0 12 #fcfcfc #000000 #000000 0 1;
#X obj 321 81 vsl 19 162 0 127 0 0 empty empty empty 0 -9 0 12 #fcfcfc #000000 #000000 0 1;
#X connect 0 0 3 0;
#X connect 1 0 0 0;
#X connect 2 0 0 1;
#X connect 4 0 0 2;
#X connect 5 0 0 3;
#X connect 6 0 0 4;
#X connect 7 0 0 5;
#X restore 894 20 pd manually-set-lights;
#X obj 421 484 moses 9;
#X obj 469 510 t b;
#X obj 534 43 r restart-loop;
#X obj 534 67 t b b;
#X obj 535 178 delay 1 1 min;
#X obj 598 115 f 30;
#X text 645 114 how many minutes between loop;
#X obj 496 184 bng 19 250 50 0 empty empty empty 0 -10 0 12 #fcfcfc #000000 #000000;
#X connect 2 0 1 0;
#X connect 3 0 1 1;
#X connect 4 0 2 1;
#X connect 4 0 3 1;
#X connect 5 0 6 0;
#X connect 6 0 4 0;
#X connect 7 0 8 0;
#X connect 7 2 5 0;
#X connect 9 0 2 0;
#X connect 9 0 28 0;
#X connect 9 1 3 0;
#X connect 9 2 18 0;
#X connect 11 0 7 0;
#X connect 12 0 9 0;
#X connect 13 0 14 0;
#X connect 15 0 12 0;
#X connect 16 0 17 0;
#X connect 16 0 37 0;
#X connect 17 0 16 1;
#X connect 18 0 16 0;
#X connect 19 0 27 0;
#X connect 21 0 9 0;
#X connect 22 0 21 0;
#X connect 24 0 25 0;
#X connect 26 0 35 0;
#X connect 27 0 16 1;
#X connect 28 0 30 0;
#X connect 30 0 31 0;
#X connect 31 0 29 0;
#X connect 32 0 26 0;
#X connect 37 0 34 0;
#X connect 37 1 38 0;
#X connect 38 0 33 0;
#X connect 39 0 40 0;
#X connect 40 0 41 0;
#X connect 40 1 42 0;
#X connect 41 0 20 0;
#X connect 42 0 41 1;
#X connect 44 0 20 0;
