#N canvas 175 108 1174 557 12;
#X msg 534 333 50000 65535 65535 10000 20000;
#X text 526 52 [hue (0-65535) \, saturation (0-65535) \, brightness (0-65535) \, Kelvin (2500-9000)], f 82;
#X text 464 54 first 4:;
#X text 467 79 arg 5: transistion in ms;
#X obj 539 205 hsl 162 19 0 127 0 0 empty empty empty -2 -10 0 12 #fcfcfc #000000 #000000 0 1;
#X obj 536 229 / 127;
#X obj 536 253 * 65535;
#X msg 549 367 3000 65535 \$1 3500 100;
#N canvas 746 200 542 488 connect2python 0;
#X obj 34 225 oscformat /bulb1/set_color;
#X msg 248 117 connect localhost 9000;
#X obj 33 300 netsend -u -b;
#X obj 34 163 r message-out;
#X obj 158 18 loadbang;
#X obj 157 47 del 5000;
#X obj 157 164 s init;
#X msg 241 168 \; pd dsp 1;
#X obj 157 71 t b b, f 13;
#X obj 157 109 del 5000;
#X obj 157 133 t b b, f 11;
#X connect 0 0 2 0;
#X connect 1 0 2 0;
#X connect 3 0 0 0;
#X connect 4 0 5 0;
#X connect 5 0 8 0;
#X connect 8 0 9 0;
#X connect 8 1 1 0;
#X connect 9 0 10 0;
#X connect 10 0 6 0;
#X connect 10 1 7 0;
#X restore 14 16 pd connect2python;
#X obj 160 424 dac~ 1 2, f 14;
#X obj 160 373 *~;
#X obj 255 379 *~;
#X obj 312 330 lop~ 5;
#X obj 362 254 f 0.5;
#X obj 362 278 clip 0 0.9;
#X msg 160 185 open sound.wav;
#X obj 42 81 t b b b, f 34;
#X msg 189 256 start;
#X obj 42 115 s start-composition;
#X obj 189 222 r start-composition;
#X obj 160 300 readsf~ 2;
#X obj 46 219 soundfiler;
#X msg 46 187 read sound.wav;
#X obj 46 243 / 44100;
#X obj 46 278 v length-s;
#X obj 108 151 t b b;
#N canvas 588 254 724 489 composition 0;
#X obj 107 112 j-timer-seconds;
#X obj 107 30 r start-composition;
#X obj 107 77 i 1;
#X obj 107 336 s message-out;
#X msg 107 304 3000 65535 65535 3500 100;
#X obj 175 262 s message-out;
#X msg 175 230 40000 65535 65535 3500 100;
#X floatatom 53 141 5 0 0 0 - - - 0;
#X obj 209 82 bng 19 250 50 0 empty empty empty 0 -10 0 12 #fcfcfc #000000 #000000;
#X obj 365 298 s message-out;
#X msg 365 266 2000 65535 65535 3500 100;
#X obj 107 54 t b b;
#X obj 107 166 sel 0 0.25 1.2, f 28;
#X connect 0 0 7 0;
#X connect 0 0 12 0;
#X connect 1 0 11 0;
#X connect 2 0 0 0;
#X connect 4 0 3 0;
#X connect 6 0 5 0;
#X connect 8 0 0 1;
#X connect 10 0 9 0;
#X connect 11 0 2 0;
#X connect 11 1 8 0;
#X connect 12 0 4 0;
#X connect 12 1 6 0;
#X connect 12 2 10 0;
#X restore 404 127 pd composition;
#X obj 42 57 r init;
#X connect 4 0 5 0;
#X connect 5 0 6 0;
#X connect 6 0 7 0;
#X connect 10 0 9 0;
#X connect 11 0 9 1;
#X connect 12 0 10 1;
#X connect 12 0 11 1;
#X connect 13 0 14 0;
#X connect 14 0 12 0;
#X connect 15 0 20 0;
#X connect 16 0 18 0;
#X connect 16 1 25 0;
#X connect 16 2 13 0;
#X connect 17 0 20 0;
#X connect 19 0 17 0;
#X connect 20 0 10 0;
#X connect 20 1 11 0;
#X connect 21 0 23 0;
#X connect 22 0 21 0;
#X connect 23 0 24 0;
#X connect 25 0 22 0;
#X connect 25 1 15 0;
#X connect 27 0 16 0;
