#N canvas 139 48 1252 748 12;
#N canvas 494 148 653 599 connect2python 0;
#X msg 248 117 connect localhost 9000;
#X obj 259 508 netsend -u -b;
#X obj 158 18 loadbang;
#X obj 157 47 del 5000;
#X obj 157 164 s init;
#X msg 241 168 \; pd dsp 1;
#X obj 157 71 t b b, f 13;
#X obj 157 109 del 5000;
#X obj 157 133 t b b, f 11;
#X obj 341 249 list split 1;
#X obj 394 416 list store;
#X obj 341 317 makefilename /%s/set_color;
#X obj 341 168 r message-out;
#X obj 341 341 list prepend set;
#X obj 341 365 list trim;
#X obj 373 459 oscformat;
#X obj 341 389 t b a;
#X obj 113 48 bng 19 250 50 0 empty empty empty 0 -10 0 12 #fcfcfc #000000 #000000;
#X connect 0 0 1 0;
#X connect 2 0 3 0;
#X connect 3 0 6 0;
#X connect 6 0 7 0;
#X connect 6 1 0 0;
#X connect 7 0 8 0;
#X connect 8 0 4 0;
#X connect 8 1 5 0;
#X connect 9 0 11 0;
#X connect 9 1 10 1;
#X connect 10 0 15 0;
#X connect 11 0 13 0;
#X connect 12 0 9 0;
#X connect 13 0 14 0;
#X connect 14 0 16 0;
#X connect 15 0 1 0;
#X connect 16 0 10 0;
#X connect 16 1 15 0;
#X connect 17 0 3 0;
#X restore 14 15 pd connect2python;
#X obj 140 664 dac~ 1 2, f 14;
#X obj 140 613 *~;
#X obj 235 619 *~;
#X obj 292 570 lop~ 5;
#X obj 362 254 f 0.5;
#X obj 362 278 clip 0 0.9;
#X obj 42 81 t b b b, f 34;
#X obj 42 117 s start-composition;
#X obj 140 340 readsf~ 2;
#N canvas 474 25 743 813 composition 0;
#X obj 107 332 j-timer-seconds;
#X obj 107 297 i 1;
#X obj 44 43 r stop;
#X obj 44 217 i 0;
#X obj 107 366 list prepend 0;
#X obj 107 390 list trim;
#N canvas 523 35 811 735 intro 0;
#X obj 103 39 inlet;
#X floatatom 124 83 5 0 0 0 - - - 0;
#X obj 152 56 bng 19 250 50 0 empty empty empty 0 -10 0 12 #fcfcfc #000000 #000000;
#X text 181 57 177;
#X text 243 58 430;
#X obj 61 155 moses 177;
#X obj 131 194 moses 430;
#X obj 59 349 i;
#X obj 126 254 i 1;
#X obj 128 228 t b;
#X obj 205 223 t b;
#X obj 205 247 i 0;
#X obj 126 323 change -1;
#X obj 59 503 t a a a a a a, f 30;
#X text 341 100 all lights on;
#X obj 274 189 t a a a a a a, f 30;
#X obj 59 686 flash 0 6000 0 10 bulb1 150;
#X obj 100 648 flash 10000 6000 2 10 bulb2 150;
#X obj 141 613 flash 20000 6000 4 10 bulb3 150;
#X obj 183 586 flash 30000 6000 6 10 bulb4 150;
#X obj 225 554 flash 40000 6000 8 10 bulb5 150;
#X obj 266 529 flash 50000 6000 0 10 bulb6 150;
#X obj 486 228 amplitude-env bulb6 50000 8000 50;
#X obj 415 281 amplitude-env bulb5 40000 8000 50;
#X obj 393 315 amplitude-env bulb4 30000 8000 50;
#X obj 375 345 amplitude-env bulb3 20000 8000 50;
#X obj 300 379 amplitude-env bulb2 10000 8000 50;
#X obj 239 409 amplitude-env bulb1 0 8000 50;
#X obj 249 131 r stop-timer;
#X obj 249 155 i 0;
#X obj 485 486 flash 10000 6000 2 10 bulb2 150;
#X obj 539 453 flash 30000 6000 6 10 bulb4 150;
#X obj 572 424 flash 40000 6000 8 10 bulb5 150;
#X obj 505 408 t a a a;
#X connect 0 0 5 0;
#X connect 0 0 1 0;
#X connect 2 0 1 0;
#X connect 5 0 7 0;
#X connect 5 1 6 0;
#X connect 6 0 9 0;
#X connect 6 0 33 0;
#X connect 6 1 7 0;
#X connect 6 1 10 0;
#X connect 7 0 13 0;
#X connect 8 0 12 0;
#X connect 9 0 8 0;
#X connect 10 0 11 0;
#X connect 11 0 12 0;
#X connect 12 0 15 0;
#X connect 13 0 16 0;
#X connect 13 1 17 0;
#X connect 13 2 18 0;
#X connect 13 3 19 0;
#X connect 13 4 20 0;
#X connect 13 5 21 0;
#X connect 15 0 27 0;
#X connect 15 2 25 0;
#X connect 15 5 22 0;
#X connect 28 0 29 0;
#X connect 29 0 15 0;
#X connect 33 0 30 0;
#X connect 33 1 31 0;
#X connect 33 2 32 0;
#X restore 107 510 pd intro;
#N canvas 413 171 912 686 (subpatch) 0;
#X obj 109 127 inlet;
#X obj 166 309 i 1;
#X floatatom 159 172 5 0 0 0 - - - 0;
#X obj 108 247 sel 0 10 102 440 599 755 1243;
#X obj 287 303 i 0;
#X obj 391 178 s message-out;
#X obj 288 167 s all-off;
#X obj 287 93 t b b;
#X obj 287 69 sel 2;
#X msg 288 132 1;
#X msg 391 146 bulb1 0 65535 65535 3500 100;
#X obj 167 361 amplitude-env bulb1 0 5000 50;
#X obj 287 45 r play-order;
#X obj 344 256 r stop-timer;
#X connect 0 0 2 0;
#X connect 0 0 3 0;
#X connect 1 0 11 0;
#X connect 3 2 1 0;
#X connect 3 6 4 0;
#X connect 4 0 11 0;
#X connect 7 0 9 0;
#X connect 7 1 10 0;
#X connect 8 0 7 0;
#X connect 9 0 6 0;
#X connect 10 0 5 0;
#X connect 12 0 8 0;
#X connect 13 0 4 0;
#X restore 148 468 pd 1;
#N canvas 439 186 912 686 (subpatch) 0;
#X obj 308 145 s message-out;
#X obj 109 127 inlet;
#X obj 205 134 s all-off;
#X msg 205 99 2;
#X obj 106 364 i 1;
#X obj 155 366 i 0;
#X floatatom 126 152 5 0 0 0 - - - 0;
#X obj 588 213 i 65535;
#X obj 588 237 / 6;
#X floatatom 588 261 14 0 0 0 - - - 0;
#X obj 552 160 bng 19 250 50 0 empty empty empty 0 -10 0 12 #fcfcfc #000000 #000000;
#X msg 308 113 bulb2 12000 65535 65535 3500 100;
#X text 331 303 every 10 is like 120bpm;
#X obj 287 326 flash 12000 6000 0 10 bulb6 300;
#X obj 107 246 sel 0 10 255 357 446 1091, f 28;
#X obj 204 36 sel 3;
#X obj 204 60 t b b;
#X obj 107 416 amplitude-env bulb2 10000 5000 50;
#X obj 204 12 r play-order;
#X obj 151 292 r stop-timer;
#X connect 1 0 6 0;
#X connect 1 0 14 0;
#X connect 3 0 2 0;
#X connect 4 0 17 0;
#X connect 5 0 17 0;
#X connect 7 0 8 0;
#X connect 8 0 9 0;
#X connect 10 0 7 0;
#X connect 11 0 0 0;
#X connect 14 0 4 0;
#X connect 14 5 5 0;
#X connect 15 0 16 0;
#X connect 16 0 3 0;
#X connect 16 1 11 0;
#X connect 18 0 15 0;
#X connect 19 0 5 0;
#X restore 197 471 pd 2;
#N canvas 307 143 912 686 (subpatch) 0;
#X obj 109 127 inlet;
#X floatatom 137 171 5 0 0 0 - - - 0;
#X obj 107 246 sel 0 255 357 446 955, f 28;
#X obj 391 178 s message-out;
#X obj 288 167 s all-off;
#X obj 287 93 t b b;
#X obj 287 69 sel 4;
#X msg 288 132 3;
#X obj 105 345 i 1;
#X obj 154 347 i 0;
#X obj 106 397 amplitude-env bulb3 20000 5000 50;
#X msg 391 146 bulb3 20000 65535 65535 3500 100;
#X obj 287 45 r play-order;
#X obj 151 292 r stop-timer;
#X connect 0 0 1 0;
#X connect 0 0 2 0;
#X connect 2 0 8 0;
#X connect 2 4 9 0;
#X connect 5 0 7 0;
#X connect 5 1 11 0;
#X connect 6 0 5 0;
#X connect 7 0 4 0;
#X connect 8 0 10 0;
#X connect 9 0 10 0;
#X connect 11 0 3 0;
#X connect 12 0 6 0;
#X connect 13 0 9 0;
#X restore 250 468 pd 3;
#N canvas 528 118 912 686 (subpatch) 0;
#X obj 109 127 inlet;
#X floatatom 143 175 5 0 0 0 - - - 0;
#X obj 107 246 sel 0 255 357 446 900 1054, f 28;
#X obj 391 178 s message-out;
#X obj 288 167 s all-off;
#X obj 287 93 t b b;
#X obj 287 69 sel 5;
#X msg 288 132 4;
#X obj 121 336 i 1;
#X obj 170 338 i 0;
#X obj 122 388 amplitude-env bulb4 30000 5000 50;
#X obj 366 90 bng 19 250 50 0 empty empty empty 0 -10 0 12 #fcfcfc #000000 #000000;
#X msg 391 146 bulb4 30000 65535 65535 3500 100;
#X obj 287 45 r play-order;
#X obj 151 292 r stop-timer;
#X connect 0 0 1 0;
#X connect 0 0 2 0;
#X connect 2 0 8 0;
#X connect 2 5 9 0;
#X connect 5 0 7 0;
#X connect 5 1 12 0;
#X connect 6 0 5 0;
#X connect 7 0 4 0;
#X connect 8 0 10 0;
#X connect 9 0 10 0;
#X connect 11 0 5 0;
#X connect 12 0 3 0;
#X connect 13 0 6 0;
#X connect 14 0 9 0;
#X restore 297 464 pd 4;
#N canvas 528 69 912 686 (subpatch) 0;
#X obj 107 466 s message-out;
#X obj 109 127 inlet;
#X floatatom 145 172 5 0 0 0 - - - 0;
#X obj 107 246 sel 0 290 390 620 792, f 28;
#X obj 391 178 s message-out;
#X obj 288 167 s all-off;
#X obj 287 93 t b b;
#X obj 287 69 sel 6;
#X msg 288 132 5;
#X msg 107 434 bulb5 40000 65535 65535 3500 100;
#X msg 391 146 bulb5 40000 65535 65535 3500 100;
#X obj 166 309 i 1;
#X obj 287 303 i 0;
#X obj 167 361 amplitude-env bulb5 40000 5000 50;
#X obj 287 45 r play-order;
#X obj 296 269 r stop-timer;
#X connect 1 0 2 0;
#X connect 1 0 3 0;
#X connect 3 0 9 0;
#X connect 3 1 11 0;
#X connect 3 4 12 0;
#X connect 6 0 8 0;
#X connect 6 1 10 0;
#X connect 7 0 6 0;
#X connect 8 0 5 0;
#X connect 9 0 0 0;
#X connect 10 0 4 0;
#X connect 11 0 13 0;
#X connect 12 0 13 0;
#X connect 14 0 7 0;
#X connect 15 0 12 0;
#X restore 346 467 pd 5;
#N canvas 7 135 912 686 (subpatch) 0;
#X obj 109 127 inlet;
#X floatatom 199 183 5 0 0 0 - - - 0;
#X obj 166 309 i 1;
#X obj 299 309 i 0;
#X obj 107 246 sel 0 180 357 446 1259, f 28;
#X obj 391 178 s message-out;
#X obj 288 167 s all-off;
#X obj 287 93 t b b;
#X obj 287 69 sel 7;
#X msg 391 146 bulb6 50000 65535 65535 3500 100;
#X obj 167 361 amplitude-env bulb6 50000 5000 50;
#X obj 287 45 r play-order;
#X msg 288 132 6;
#X obj 322 269 r stop-timer;
#X connect 0 0 1 0;
#X connect 0 0 4 0;
#X connect 2 0 10 0;
#X connect 3 0 10 0;
#X connect 4 1 2 0;
#X connect 4 4 3 0;
#X connect 7 0 12 0;
#X connect 7 1 9 0;
#X connect 8 0 7 0;
#X connect 9 0 5 0;
#X connect 11 0 8 0;
#X connect 12 0 6 0;
#X connect 13 0 3 0;
#X restore 399 464 pd 6;
#N canvas 151 210 601 477 outro 0;
#X obj 62 45 inlet;
#X obj 59 159 i;
#X obj 59 188 t a a a a a a, f 30;
#X obj 59 371 flash 0 6000 0 10 bulb1 150;
#X obj 100 333 flash 10000 6000 2 10 bulb2 150;
#X obj 141 298 flash 20000 6000 4 10 bulb3 150;
#X obj 183 271 flash 30000 6000 6 10 bulb4 150;
#X obj 225 239 flash 40000 6000 8 10 bulb5 150;
#X obj 266 214 flash 50000 6000 0 10 bulb6 150;
#X connect 0 0 1 0;
#X connect 1 0 2 0;
#X connect 2 0 3 0;
#X connect 2 1 4 0;
#X connect 2 2 5 0;
#X connect 2 3 6 0;
#X connect 2 4 7 0;
#X connect 2 5 8 0;
#X restore 444 505 pd outro;
#X obj 107 414 route 1 2 3 4 5 6 7 8, f 53;
#X text 133 578 [hue (0-65535) \, saturation (0-65535) \, brightness (0-65535) \, Kelvin (2500-9000)], f 82;
#X text 71 580 first 4:;
#X text 74 605 arg 5: transistion in ms;
#X obj 156 302 i 0;
#X obj 560 304 i 1;
#X obj 546 152 del 3000;
#X obj 548 189 i;
#X obj 562 33 t b a b, f 21;
#X obj 609 309 i 0;
#X obj 546 215 t b a b, f 28;
#X obj 562 9 r set-play-order;
#X obj 724 306 s play-order;
#X text 632 152 3 seconds of delay between each file;
#X obj 169 150 r stop-timer;
#X obj 115 103 r play-order;
#X obj 131 221 t b b a, f 13;
#X connect 0 0 4 0;
#X connect 1 0 0 0;
#X connect 2 0 3 0;
#X connect 3 0 0 0;
#X connect 4 0 5 0;
#X connect 5 0 14 0;
#X connect 14 0 6 0;
#X connect 14 1 7 0;
#X connect 14 2 8 0;
#X connect 14 3 9 0;
#X connect 14 4 10 0;
#X connect 14 5 11 0;
#X connect 14 6 12 0;
#X connect 14 7 13 0;
#X connect 18 0 0 0;
#X connect 20 0 21 0;
#X connect 21 0 24 0;
#X connect 22 0 20 0;
#X connect 22 1 21 1;
#X connect 22 2 23 0;
#X connect 24 0 19 0;
#X connect 24 1 26 0;
#X connect 25 0 22 0;
#X connect 28 0 18 0;
#X connect 29 0 30 0;
#X connect 30 0 1 0;
#X connect 30 1 0 1;
#X connect 30 2 4 1;
#X restore 404 127 pd composition;
#X obj 42 57 r init;
#X msg 270 302 stop;
#X obj 411 178 bng 19 250 50 0 empty empty empty 0 -10 0 12 #fcfcfc #000000 #000000;
#X obj 411 202 s stop;
#X obj 270 272 r stop;
#N canvas 63 88 556 300 play-control 0;
#X obj 152 264 outlet;
#X obj 152 206 list prepend open;
#X obj 152 230 list trim;
#X obj 84 208 t b a;
#X obj 80 9 inlet;
#X msg 84 232 start;
#X obj 79 47 select 1 2 3 4 5 6 7 8, f 52;
#X msg 109 98 1.wav;
#X msg 157 96 2.wav;
#X msg 209 98 3.wav;
#X msg 257 96 4.wav;
#X msg 309 97 5.wav;
#X msg 357 95 6.wav;
#X msg 403 115 outro.wav;
#X msg 37 118 intro.wav;
#X connect 1 0 2 0;
#X connect 2 0 0 0;
#X connect 3 0 5 0;
#X connect 3 1 1 0;
#X connect 4 0 6 0;
#X connect 5 0 0 0;
#X connect 6 0 14 0;
#X connect 6 1 7 0;
#X connect 6 2 8 0;
#X connect 6 3 9 0;
#X connect 6 4 10 0;
#X connect 6 5 11 0;
#X connect 6 6 12 0;
#X connect 6 7 13 0;
#X connect 7 0 3 0;
#X connect 8 0 3 0;
#X connect 9 0 3 0;
#X connect 10 0 3 0;
#X connect 11 0 3 0;
#X connect 12 0 3 0;
#X connect 13 0 3 0;
#X connect 14 0 3 0;
#X restore 140 300 pd play-control;
#X obj 140 253 r play-order;
#N canvas 63 88 691 495 all-off 0;
#X obj 296 12 r all-off;
#X obj 433 402 s message-out;
#X obj 286 212 until;
#X obj 286 139 t a b;
#X obj 286 179 max 1;
#X obj 339 179 i 1;
#X obj 286 236 i, f 9;
#X obj 374 237 + 1;
#X obj 286 260 sel 0, f 21;
#X obj 296 57 t b a;
#X obj 296 81 i 6;
#X msg 394 55 1;
#X obj 428 315 * 10000;
#X obj 429 288 t a a;
#X obj 428 339 pack 0 0;
#X msg 433 370 bulb\$2 \$2 0 0 3500 3000;
#X connect 0 0 9 0;
#X connect 2 0 6 0;
#X connect 3 0 4 0;
#X connect 3 1 5 0;
#X connect 4 0 2 0;
#X connect 5 0 6 1;
#X connect 6 0 7 0;
#X connect 6 0 8 0;
#X connect 7 0 6 1;
#X connect 8 1 13 0;
#X connect 9 0 10 0;
#X connect 9 1 8 1;
#X connect 10 0 3 0;
#X connect 11 0 9 0;
#X connect 12 0 14 0;
#X connect 13 0 12 0;
#X connect 13 1 14 1;
#X connect 14 0 15 0;
#X connect 15 0 1 0;
#X restore 164 18 pd all-off;
#X obj 331 35 r play-order;
#X floatatom 331 59 5 0 0 0 - - - 0;
#X obj 46 199 i 1;
#X obj 28 454 env~;
#X obj 28 543 s amp-env;
#X obj 28 478 - 50;
#X obj 28 502 / 50;
#X obj 46 171 r start-composition;
#X obj 46 223 s set-play-order;
#N canvas 121 146 1015 577 manually-set-lights 0;
#N canvas 124 271 1199 601 manually-set-lights 0;
#X obj 194 169 hsl 162 19 0 127 0 0 empty empty empty -2 -10 0 12 #fcfcfc #000000 #000000 0 1;
#X obj 279 253 / 127;
#X obj 279 277 * 65535;
#X obj 281 492 s message-out;
#X obj 354 329 t b a;
#X obj 377 174 hsl 162 19 0 127 0 0 empty empty empty -2 -10 0 12 #fcfcfc #000000 #000000 0 1;
#X obj 354 280 / 127;
#X obj 354 304 * 65535;
#X obj 533 263 t b a;
#X obj 536 190 hsl 162 19 0 127 0 0 empty empty empty -2 -10 0 12 #fcfcfc #000000 #000000 0 1;
#X obj 533 214 / 127;
#X obj 533 238 * 65535;
#X obj 490 310 s bang-list;
#X obj 205 292 r bang-list;
#X obj 631 285 t b a;
#X obj 634 212 hsl 162 19 0 127 0 0 empty empty empty -2 -10 0 12 #fcfcfc #000000 #000000 0 1;
#X obj 631 236 / 127;
#X obj 588 332 s bang-list;
#X obj 825 314 t b a;
#X obj 828 241 hsl 162 19 0 127 0 0 empty empty empty -2 -10 0 12 #fcfcfc #000000 #000000 0 1;
#X obj 825 265 / 127;
#X obj 782 361 s bang-list;
#X obj 825 289 * 9000;
#X obj 631 260 * 9000;
#X obj 279 409 list prepend bulb1;
#X obj 279 433 list trim;
#X msg 73 231 bulb\$1;
#X obj 73 108 / 127;
#X obj 73 156 + 0.49999;
#X obj 73 180 i;
#X obj 99 44 hsl 162 19 0 127 0 0 empty empty empty -2 -10 0 12 #fcfcfc #000000 #000000 0 1;
#X obj 73 204 + 1;
#X obj 73 132 * 5;
#X obj 51 24 inlet;
#X text 102 20 set bulb;
#X obj 275 123 inlet;
#X text 329 125 hue;
#X obj 394 138 inlet;
#X text 448 142 saturation;
#X obj 588 125 inlet;
#X text 642 129 brightnesse;
#X obj 724 161 inlet;
#X text 778 165 Kelvin;
#X obj 851 174 inlet;
#X text 905 178 time;
#X obj 279 363 pack 0 65535 65535 9000 1000, f 64;
#X obj 145 430 list store;
#X obj 145 454 print see-vals;
#X obj 137 381 bng 19 250 50 0 empty empty empty 0 -10 0 12 #fcfcfc #000000 #000000;
#X obj 27 360 outlet;
#X connect 0 0 1 0;
#X connect 1 0 2 0;
#X connect 2 0 45 0;
#X connect 4 0 45 0;
#X connect 4 1 45 1;
#X connect 5 0 6 0;
#X connect 6 0 7 0;
#X connect 7 0 4 0;
#X connect 8 0 12 0;
#X connect 8 1 45 2;
#X connect 9 0 10 0;
#X connect 10 0 11 0;
#X connect 11 0 8 0;
#X connect 13 0 45 0;
#X connect 14 0 17 0;
#X connect 14 1 45 3;
#X connect 15 0 16 0;
#X connect 16 0 23 0;
#X connect 18 0 21 0;
#X connect 18 1 45 4;
#X connect 19 0 20 0;
#X connect 20 0 22 0;
#X connect 22 0 18 0;
#X connect 23 0 14 0;
#X connect 24 0 25 0;
#X connect 25 0 3 0;
#X connect 26 0 24 1;
#X connect 27 0 32 0;
#X connect 28 0 29 0;
#X connect 29 0 31 0;
#X connect 30 0 27 0;
#X connect 31 0 26 0;
#X connect 31 0 49 0;
#X connect 32 0 28 0;
#X connect 33 0 27 0;
#X connect 35 0 1 0;
#X connect 37 0 6 0;
#X connect 39 0 10 0;
#X connect 41 0 16 0;
#X connect 43 0 19 0;
#X connect 45 0 24 0;
#X connect 45 0 46 1;
#X connect 46 0 47 0;
#X connect 48 0 46 0;
#X restore 81 287 pd manually-set-lights;
#X f 43;
#X obj 81 90 vsl 19 162 0 127 0 0 empty empty empty 0 -9 0 12 #fcfcfc #000000 #000000 0 1;
#X obj 143 87 vsl 19 162 0 127 0 0 empty empty empty 0 -9 0 12 #fcfcfc #000000 #000000 0 1;
#X floatatom 81 311 5 0 0 0 - - - 0;
#X obj 192 82 vsl 19 162 0 127 0 0 empty empty empty 0 -9 0 12 #fcfcfc #000000 #000000 0 1;
#X obj 238 81 vsl 19 162 0 127 0 0 empty empty empty 0 -9 0 12 #fcfcfc #000000 #000000 0 1;
#X obj 318 91 vsl 19 162 0 127 0 0 empty empty empty 0 -9 0 12 #fcfcfc #000000 #000000 0 1;
#X obj 379 99 vsl 19 162 0 127 0 0 empty empty empty 0 -9 0 12 #fcfcfc #000000 #000000 0 1;
#X connect 0 0 3 0;
#X connect 1 0 0 0;
#X connect 2 0 0 1;
#X connect 4 0 0 2;
#X connect 5 0 0 3;
#X connect 6 0 0 4;
#X connect 7 0 0 5;
#X restore 1045 73 pd manually-set-lights;
#N canvas 596 178 609 444 random-gen 1;
#X obj 105 208 delay 1 1 min;
#X obj 161 87 random 3;
#X obj 161 111 sel 0 1 2;
#X obj 106 375 outlet;
#X obj 113 10 inlet;
#X obj 106 300 + 1;
#X obj 252 332 s one-round;
#X obj 106 276 random-no-repeats 6;
#X obj 340 19 inlet;
#X obj 344 74 sel 0 1 2;
#X obj 348 162 i 1;
#X obj 385 177 i 8;
#X obj 399 291 i 1;
#X obj 115 48 t b b b, f 14;
#X obj 331 275 i 0;
#X obj 105 232 t b b;
#X msg 57 119 stop;
#X obj 413 334 s rest-mode-status;
#X obj 135 152 f 5;
#X obj 193 151 f 8;
#X obj 249 154 f 10;
#X connect 0 0 15 0;
#X connect 1 0 2 0;
#X connect 2 0 18 0;
#X connect 2 1 19 0;
#X connect 2 2 20 0;
#X connect 4 0 13 0;
#X connect 5 0 3 0;
#X connect 7 0 5 0;
#X connect 7 1 6 0;
#X connect 8 0 9 0;
#X connect 9 0 13 0;
#X connect 9 1 10 0;
#X connect 9 2 11 0;
#X connect 10 0 3 0;
#X connect 11 0 3 0;
#X connect 12 0 17 0;
#X connect 13 0 0 0;
#X connect 13 1 1 0;
#X connect 13 2 12 0;
#X connect 13 2 16 0;
#X connect 14 0 17 0;
#X connect 15 0 7 0;
#X connect 15 1 14 0;
#X connect 16 0 0 0;
#X connect 18 0 0 1;
#X connect 19 0 0 1;
#X connect 20 0 0 1;
#X restore 401 493 pd random-gen;
#X obj 401 593 s play-order;
#N canvas 63 88 693 524 old-loop-stuff 0;
#X obj 36 108 i;
#X obj 76 109 + 1;
#X obj 54 50 r start-composition;
#X obj 54 74 i 2;
#X obj 86 200 s restart-loop;
#X obj 36 139 moses 9;
#X obj 84 165 t b;
#X obj 325 215 s start-composition;
#X obj 324 37 r restart-loop;
#X obj 324 61 t b b;
#X obj 325 172 delay 1 1 min;
#X obj 413 124 f 30;
#X text 460 123 how many minutes between loop;
#X obj 286 178 bng 19 250 50 0 empty empty empty 0 -10 0 12 #fcfcfc #000000 #000000;
#X connect 0 0 1 0;
#X connect 0 0 5 0;
#X connect 1 0 0 1;
#X connect 2 0 3 0;
#X connect 3 0 0 1;
#X connect 5 1 6 0;
#X connect 6 0 4 0;
#X connect 8 0 9 0;
#X connect 9 0 10 0;
#X connect 9 1 11 0;
#X connect 10 0 7 0;
#X connect 11 0 10 1;
#X connect 13 0 7 0;
#X restore 1045 43 pd old-loop-stuff;
#X obj 401 416 t b b;
#X obj 433 448 s stop-timer;
#X obj 614 317 r one-round;
#X obj 614 365 i 1;
#X obj 653 363 + 1;
#X obj 699 415 t b;
#X obj 699 439 i 0;
#X obj 653 387 moses 2;
#X obj 427 36 r rest-mode-status;
#X floatatom 427 60 5 0 0 0 - - - 0;
#N canvas 116 164 1324 708 rest 0;
#N canvas 385 117 1055 755 brightness-sweep 0;
#X obj 235 777 s message-out;
#X obj 292 708 s message-out;
#X obj 342 646 s message-out;
#X obj 399 581 s message-out;
#X obj 491 526 s message-out;
#X obj 557 458 s message-out;
#X obj 395 313 t a;
#X obj 63 20 hsl 162 19 0 127 0 0 empty empty empty -2 -10 0 12 #fcfcfc #000000 #000000 0 1;
#X obj 68 58 / 127;
#X obj 395 284 i;
#X msg 398 550 bulb4 30000 65535 \$1 3500 200;
#X msg 491 493 bulb5 40000 65535 \$1 3500 200;
#X msg 556 427 bulb6 50000 65535 \$1 3500 200;
#X msg 341 615 bulb3 20000 65535 \$1 3500 200;
#X msg 291 677 bulb2 10000 65535 \$1 3500 200;
#X msg 234 742 bulb1 0 65535 \$1 3500 200;
#X obj 123 585 * 65535;
#X obj 277 577 * 65535;
#X obj 346 548 * 65535;
#X obj 408 486 * 65535;
#X obj 477 451 * 65535;
#X obj 393 252 * 600;
#X obj 161 475 % 600;
#X obj 277 528 / 600;
#X obj 277 504 % 600;
#X obj 408 408 % 600;
#X obj 408 432 / 600;
#X obj 346 471 % 600;
#X obj 346 495 / 600;
#X obj 477 375 % 600;
#X obj 477 399 / 600;
#X obj 556 310 % 600;
#X obj 556 334 / 600;
#X obj 277 552 scale-cos;
#X obj 161 451 + 300;
#X obj 161 499 / 600;
#X obj 277 480 + 400;
#X obj 346 446 + 500;
#X obj 408 384 + 600;
#X obj 477 350 + 700;
#X obj 346 519 scale-cos;
#X obj 408 456 scale-cos;
#X obj 477 423 scale-cos;
#X obj 556 364 scale-cos;
#X obj 556 388 * 65535;
#X obj 556 286 + 800;
#X obj 393 224 line 0 200;
#X obj 741 30 r backwards-sweep;
#X obj 395 4 r forwards-sweep;
#X obj 404 138 metro 3000;
#X obj 398 31 sel 0;
#X obj 434 85 i 1;
#X obj 398 55 i 0;
#X obj 742 167 metro 3000;
#X obj 736 60 sel 0;
#X obj 772 114 i 1;
#X obj 736 84 i 0;
#X obj 125 541 scale-cos;
#X msg 403 188 0 \, 1 \$1;
#X obj 434 61 t b a a;
#X obj 404 162 i, f 17;
#X obj 742 191 i, f 17;
#X obj 772 90 t b a a;
#X msg 743 222 1 \, 0 \$1;
#X obj 260 83 r rest-mode-status;
#X obj 260 107 sel 0;
#X msg 259 139 stop;
#X connect 6 0 34 0;
#X connect 6 0 36 0;
#X connect 6 0 37 0;
#X connect 6 0 38 0;
#X connect 6 0 39 0;
#X connect 6 0 45 0;
#X connect 7 0 8 0;
#X connect 8 0 21 0;
#X connect 9 0 6 0;
#X connect 10 0 3 0;
#X connect 11 0 4 0;
#X connect 12 0 5 0;
#X connect 13 0 2 0;
#X connect 14 0 1 0;
#X connect 15 0 0 0;
#X connect 16 0 15 0;
#X connect 17 0 14 0;
#X connect 18 0 13 0;
#X connect 19 0 10 0;
#X connect 20 0 11 0;
#X connect 21 0 9 0;
#X connect 22 0 35 0;
#X connect 23 0 33 0;
#X connect 24 0 23 0;
#X connect 25 0 26 0;
#X connect 26 0 41 0;
#X connect 27 0 28 0;
#X connect 28 0 40 0;
#X connect 29 0 30 0;
#X connect 30 0 42 0;
#X connect 31 0 32 0;
#X connect 32 0 43 0;
#X connect 33 0 17 0;
#X connect 34 0 22 0;
#X connect 35 0 57 0;
#X connect 36 0 24 0;
#X connect 37 0 27 0;
#X connect 38 0 25 0;
#X connect 39 0 29 0;
#X connect 40 0 18 0;
#X connect 41 0 19 0;
#X connect 42 0 20 0;
#X connect 43 0 44 0;
#X connect 44 0 12 0;
#X connect 45 0 31 0;
#X connect 46 0 21 0;
#X connect 47 0 54 0;
#X connect 48 0 50 0;
#X connect 49 0 60 0;
#X connect 50 0 52 0;
#X connect 50 1 59 0;
#X connect 51 0 49 0;
#X connect 52 0 49 0;
#X connect 53 0 61 0;
#X connect 54 0 56 0;
#X connect 54 1 62 0;
#X connect 55 0 53 0;
#X connect 56 0 53 0;
#X connect 57 0 16 0;
#X connect 58 0 46 0;
#X connect 59 0 51 0;
#X connect 59 1 49 1;
#X connect 59 2 60 1;
#X connect 60 0 58 0;
#X connect 61 0 63 0;
#X connect 62 0 55 0;
#X connect 62 1 53 1;
#X connect 62 2 61 1;
#X connect 63 0 46 0;
#X connect 64 0 65 0;
#X connect 65 0 66 0;
#X connect 66 0 46 0;
#X restore 373 12 pd brightness-sweep;
#N canvas 121 146 958 604 hue-sweep 0;
#X obj 372 774 s message-out;
#X obj 429 705 s message-out;
#X obj 479 643 s message-out;
#X obj 536 578 s message-out;
#X obj 591 523 s message-out;
#X obj 694 455 s message-out;
#X obj 532 310 t a;
#X obj 337 527 % 65535;
#X obj 407 522 % 65535;
#X obj 407 498 + 10000;
#X obj 484 509 % 65535;
#X obj 484 485 + 20000;
#X obj 548 409 % 65535;
#X obj 618 404 % 65535;
#X obj 695 391 % 65535;
#X obj 695 367 + 20000;
#X obj 548 385 + 30000;
#X obj 618 380 + 40000;
#X obj 63 34 hsl 162 19 0 127 0 0 empty empty empty -2 -10 0 12 #fcfcfc #000000 #000000 0 1;
#X obj 60 58 / 127;
#X obj 530 249 * 65535;
#X obj 532 281 i;
#X msg 371 739 bulb1 \$1 65535 65535 3500 200;
#X msg 428 674 bulb2 \$1 65535 65535 3500 200;
#X msg 478 612 bulb3 \$1 65535 65535 3500 200;
#X msg 535 547 bulb4 \$1 65535 65535 3500 200;
#X msg 591 491 bulb5 \$1 65535 65535 3500 200;
#X msg 693 424 bulb6 \$1 65535 65535 3500 200;
#X obj 513 156 line 0 200;
#X obj 337 503 + 0;
#X obj 273 215 metro 3000;
#X obj 267 108 sel 0;
#X obj 303 162 i 1;
#X obj 267 132 i 0;
#X msg 272 265 0 \, 1 \$1;
#X obj 303 138 t b a a;
#X obj 273 239 i, f 17;
#X obj 264 81 r control-hue-sweep;
#X obj 631 224 metro 3000;
#X obj 625 117 sel 0;
#X obj 661 171 i 1;
#X obj 625 141 i 0;
#X obj 661 147 t b a a;
#X obj 631 248 i, f 17;
#X msg 630 274 1 \, 0 \$1;
#X obj 622 90 r control-hue-sweep-neg;
#X obj 451 13 r rest-mode-status;
#X obj 451 37 sel 0;
#X msg 450 69 stop;
#X connect 6 0 9 0;
#X connect 6 0 11 0;
#X connect 6 0 16 0;
#X connect 6 0 17 0;
#X connect 6 0 15 0;
#X connect 6 0 29 0;
#X connect 7 0 22 0;
#X connect 8 0 23 0;
#X connect 9 0 8 0;
#X connect 10 0 24 0;
#X connect 11 0 10 0;
#X connect 12 0 25 0;
#X connect 13 0 26 0;
#X connect 14 0 27 0;
#X connect 15 0 14 0;
#X connect 16 0 12 0;
#X connect 17 0 13 0;
#X connect 18 0 19 0;
#X connect 19 0 20 0;
#X connect 20 0 21 0;
#X connect 21 0 6 0;
#X connect 22 0 0 0;
#X connect 23 0 1 0;
#X connect 24 0 2 0;
#X connect 25 0 3 0;
#X connect 26 0 4 0;
#X connect 27 0 5 0;
#X connect 28 0 20 0;
#X connect 29 0 7 0;
#X connect 30 0 36 0;
#X connect 31 0 33 0;
#X connect 31 1 35 0;
#X connect 32 0 30 0;
#X connect 33 0 30 0;
#X connect 34 0 28 0;
#X connect 35 0 32 0;
#X connect 35 1 30 1;
#X connect 35 2 36 1;
#X connect 36 0 34 0;
#X connect 37 0 31 0;
#X connect 38 0 43 0;
#X connect 39 0 41 0;
#X connect 39 1 42 0;
#X connect 40 0 38 0;
#X connect 41 0 38 0;
#X connect 42 0 40 0;
#X connect 42 1 38 1;
#X connect 42 2 43 1;
#X connect 43 0 44 0;
#X connect 44 0 28 0;
#X connect 45 0 39 0;
#X connect 46 0 47 0;
#X connect 47 0 48 0;
#X connect 48 0 28 0;
#X restore 369 53 pd hue-sweep;
#N canvas 215 174 1135 651 slow-osc-change 0;
#X obj 202 352 t a;
#X obj 202 323 i;
#X obj 200 291 * 600;
#X obj 202 246 line 0 200;
#X obj 202 156 metro 3000;
#X obj 196 25 r slow-osc;
#X obj 196 49 sel 0;
#X obj 232 103 i 1;
#X obj 196 73 i 0;
#X obj 49 591 set-cos-hue-bright 300 8000 0 0 55535 10000;
#X obj 155 559 set-cos-hue-bright 400 8000 0 100 55535 10000;
#X obj 223 529 set-cos-hue-bright 500 8000 0 200 55535 10000;
#X obj 329 497 set-cos-hue-bright 600 8000 0 300 55535 10000;
#X obj 376 457 set-cos-hue-bright 700 8000 0 400 55535 10000;
#X obj 482 425 set-cos-hue-bright 800 8000 0 500 55535 10000;
#X msg 202 222 0 \, 1 \$1;
#X obj 202 180 i, f 15;
#X obj 232 79 t b a a;
#X obj 451 13 r rest-mode-status;
#X obj 451 37 sel 0;
#X msg 450 69 stop;
#X connect 0 0 9 0;
#X connect 0 0 10 0;
#X connect 0 0 11 0;
#X connect 0 0 12 0;
#X connect 0 0 13 0;
#X connect 0 0 14 0;
#X connect 1 0 0 0;
#X connect 2 0 1 0;
#X connect 3 0 2 0;
#X connect 4 0 16 0;
#X connect 5 0 6 0;
#X connect 6 0 8 0;
#X connect 6 1 17 0;
#X connect 7 0 4 0;
#X connect 8 0 4 0;
#X connect 15 0 3 0;
#X connect 16 0 15 0;
#X connect 17 0 7 0;
#X connect 17 1 4 1;
#X connect 17 2 16 1;
#X connect 18 0 19 0;
#X connect 19 0 20 0;
#X connect 20 0 3 0;
#X restore 375 99 pd slow-osc-change;
#X obj 74 72 r rest-mode-status;
#X text 504 158 use slow-osc as base but add sweeps at random points;
#X obj 277 230 loadbang;
#X obj 278 294 realtime;
#X obj 278 318 unpack f f;
#X obj 277 254 t b b;
#X obj 278 342 + 1;
#X obj 278 366 % 10000;
#X msg 278 390 seed \$1;
#X text 43 470 color sweep for 10sec;
#X text 43 492 slow osc for rest;
#X obj 237 423 random 5;
#X obj 74 96 sel 1;
#N canvas 63 88 784 631 movement-1 0;
#X obj 83 394 s control-hue-sweep;
#X msg 82 202 10000;
#X obj 254 189 del 10000;
#X obj 254 294 s slow-osc;
#X msg 254 266 30000;
#X obj 82 142 t b b;
#X msg 287 161 stop;
#X obj 252 138 t b b;
#X obj 254 213 t b b;
#X obj 286 240 i 0;
#X obj 310 98 r rest-mode-status;
#X obj 312 137 sel 0;
#X obj 74 27 inlet;
#X connect 1 0 0 0;
#X connect 2 0 8 0;
#X connect 4 0 3 0;
#X connect 5 0 1 0;
#X connect 5 1 7 0;
#X connect 6 0 2 0;
#X connect 7 0 2 0;
#X connect 7 1 6 0;
#X connect 8 0 4 0;
#X connect 8 1 9 0;
#X connect 9 0 0 0;
#X connect 10 0 11 0;
#X connect 11 0 6 0;
#X connect 12 0 5 0;
#X restore 235 531 pd movement-1;
#N canvas 476 241 784 631 movement-2 0;
#X msg 276 248 stop;
#X obj 241 225 t b b;
#X obj 243 300 t b b;
#X obj 275 327 i 0;
#X obj 299 185 r rest-mode-status;
#X obj 301 224 sel 0;
#X obj 74 27 inlet;
#X obj 72 481 s control-hue-sweep-neg;
#X obj 254 479 s control-hue-sweep;
#X msg 71 289 5000;
#X msg 243 353 5000;
#X obj 243 276 del 5000;
#X obj 76 78 t b b b, f 52;
#X msg 521 246 stop;
#X obj 486 223 t b b;
#X obj 488 298 t b b;
#X obj 520 325 i 0;
#X obj 544 183 r rest-mode-status;
#X obj 546 222 sel 0;
#X obj 488 274 del 10000;
#X msg 488 451 30000;
#X obj 488 475 s slow-osc;
#X connect 0 0 11 0;
#X connect 1 0 11 0;
#X connect 1 1 0 0;
#X connect 2 0 10 0;
#X connect 2 1 3 0;
#X connect 3 0 7 0;
#X connect 4 0 5 0;
#X connect 5 0 0 0;
#X connect 6 0 12 0;
#X connect 9 0 7 0;
#X connect 10 0 8 0;
#X connect 11 0 2 0;
#X connect 12 0 9 0;
#X connect 12 1 1 0;
#X connect 12 2 14 0;
#X connect 13 0 19 0;
#X connect 14 0 19 0;
#X connect 14 1 13 0;
#X connect 15 0 20 0;
#X connect 15 1 16 0;
#X connect 16 0 8 0;
#X connect 17 0 18 0;
#X connect 18 0 13 0;
#X connect 19 0 15 0;
#X connect 20 0 21 0;
#X restore 331 519 pd movement-2;
#N canvas 476 241 784 631 movement-3 0;
#X obj 74 27 inlet;
#X msg 72 64 30000;
#X obj 72 88 s slow-osc;
#X connect 0 0 1 0;
#X connect 1 0 2 0;
#X restore 426 483 pd movement-3;
#X obj 237 447 sel 0 1 2 3 4, f 70;
#N canvas 476 241 784 631 movement-4 0;
#X msg 276 248 stop;
#X obj 241 225 t b b;
#X obj 243 300 t b b;
#X obj 275 327 i 0;
#X obj 299 185 r rest-mode-status;
#X obj 301 224 sel 0;
#X obj 74 27 inlet;
#X msg 71 289 5000;
#X msg 243 353 5000;
#X obj 76 78 t b b b, f 52;
#X msg 521 246 stop;
#X obj 486 223 t b b;
#X obj 488 298 t b b;
#X obj 520 325 i 0;
#X obj 544 183 r rest-mode-status;
#X obj 546 222 sel 0;
#X msg 488 451 30000;
#X obj 488 475 s slow-osc;
#X obj 72 481 s forwards-sweep;
#X obj 243 276 del 20000;
#X obj 254 479 s backwards-sweep;
#X obj 488 274 del 40000;
#X connect 0 0 19 0;
#X connect 1 0 19 0;
#X connect 1 1 0 0;
#X connect 2 0 8 0;
#X connect 2 1 3 0;
#X connect 3 0 18 0;
#X connect 4 0 5 0;
#X connect 5 0 0 0;
#X connect 6 0 9 0;
#X connect 7 0 18 0;
#X connect 8 0 20 0;
#X connect 9 0 7 0;
#X connect 9 1 1 0;
#X connect 9 2 11 0;
#X connect 10 0 21 0;
#X connect 11 0 21 0;
#X connect 11 1 10 0;
#X connect 12 0 16 0;
#X connect 12 1 13 0;
#X connect 13 0 20 0;
#X connect 14 0 15 0;
#X connect 15 0 10 0;
#X connect 16 0 17 0;
#X connect 19 0 2 0;
#X connect 21 0 12 0;
#X restore 537 517 pd movement-4;
#N canvas 476 241 784 631 movement-5 0;
#X msg 276 248 stop;
#X obj 241 225 t b b;
#X obj 243 300 t b b;
#X obj 275 327 i 0;
#X obj 299 185 r rest-mode-status;
#X obj 301 224 sel 0;
#X obj 74 27 inlet;
#X msg 71 289 5000;
#X msg 243 353 5000;
#X obj 76 78 t b b b, f 52;
#X msg 521 246 stop;
#X obj 486 223 t b b;
#X obj 488 298 t b b;
#X obj 520 325 i 0;
#X obj 544 183 r rest-mode-status;
#X obj 546 222 sel 0;
#X msg 488 451 30000;
#X obj 488 475 s slow-osc;
#X obj 243 276 del 20000;
#X obj 488 274 del 40000;
#X obj 72 481 s control-hue-sweep;
#X obj 254 479 s control-hue-sweep-neg;
#X connect 0 0 18 0;
#X connect 1 0 18 0;
#X connect 1 1 0 0;
#X connect 2 0 8 0;
#X connect 2 1 3 0;
#X connect 3 0 20 0;
#X connect 4 0 5 0;
#X connect 5 0 0 0;
#X connect 6 0 9 0;
#X connect 7 0 20 0;
#X connect 8 0 21 0;
#X connect 9 0 7 0;
#X connect 9 1 1 0;
#X connect 9 2 11 0;
#X connect 10 0 19 0;
#X connect 11 0 19 0;
#X connect 11 1 10 0;
#X connect 12 0 16 0;
#X connect 12 1 13 0;
#X connect 13 0 21 0;
#X connect 14 0 15 0;
#X connect 15 0 10 0;
#X connect 16 0 17 0;
#X connect 18 0 2 0;
#X connect 19 0 12 0;
#X restore 616 487 pd movement-5;
#X connect 3 0 15 0;
#X connect 5 0 8 0;
#X connect 6 0 7 0;
#X connect 7 0 9 0;
#X connect 8 0 6 0;
#X connect 8 1 6 1;
#X connect 9 0 10 0;
#X connect 10 0 11 0;
#X connect 11 0 14 0;
#X connect 14 0 19 0;
#X connect 15 0 14 0;
#X connect 19 0 16 0;
#X connect 19 1 17 0;
#X connect 19 2 18 0;
#X connect 19 3 20 0;
#X connect 19 4 21 0;
#X restore 720 90 pd rest;
#X connect 2 0 1 0;
#X connect 3 0 1 1;
#X connect 4 0 2 1;
#X connect 4 0 3 1;
#X connect 5 0 6 0;
#X connect 6 0 4 0;
#X connect 7 0 8 0;
#X connect 7 2 5 0;
#X connect 9 0 2 0;
#X connect 9 0 22 0;
#X connect 9 1 3 0;
#X connect 9 2 32 0;
#X connect 11 0 7 0;
#X connect 12 0 9 0;
#X connect 13 0 14 0;
#X connect 15 0 12 0;
#X connect 16 0 9 0;
#X connect 17 0 16 0;
#X connect 19 0 20 0;
#X connect 21 0 27 0;
#X connect 22 0 24 0;
#X connect 24 0 25 0;
#X connect 25 0 23 0;
#X connect 26 0 21 0;
#X connect 29 0 30 0;
#X connect 32 0 29 0;
#X connect 32 1 33 0;
#X connect 34 0 35 0;
#X connect 35 0 36 0;
#X connect 35 0 29 1;
#X connect 36 0 39 0;
#X connect 37 0 38 0;
#X connect 38 0 35 1;
#X connect 39 0 35 1;
#X connect 39 1 37 0;
#X connect 40 0 41 0;
