#N canvas 152 142 1252 557 12;
#X text 526 52 [hue (0-65535) \, saturation (0-65535) \, brightness (0-65535) \, Kelvin (2500-9000)], f 82;
#X text 464 54 first 4:;
#X text 467 79 arg 5: transistion in ms;
#N canvas 494 148 653 599 connect2python 1;
#X msg 248 117 connect localhost 9000;
#X obj 259 508 netsend -u -b;
#X obj 158 18 loadbang;
#X obj 157 47 del 5000;
#X obj 157 164 s init;
#X msg 241 168 \; pd dsp 1;
#X obj 157 71 t b b, f 13;
#X obj 157 109 del 5000;
#X obj 157 133 t b b, f 11;
#X obj 341 249 list split 1;
#X obj 394 416 list store;
#X obj 341 317 makefilename /%s/set_color;
#X obj 342 212 r message-out;
#X obj 341 341 list prepend set;
#X obj 341 365 list trim;
#X obj 373 459 oscformat;
#X obj 341 389 t b a;
#X connect 0 0 1 0;
#X connect 2 0 3 0;
#X connect 3 0 6 0;
#X connect 6 0 7 0;
#X connect 6 1 0 0;
#X connect 7 0 8 0;
#X connect 8 0 4 0;
#X connect 8 1 5 0;
#X connect 9 0 11 0;
#X connect 9 1 10 1;
#X connect 10 0 15 0;
#X connect 11 0 13 0;
#X connect 12 0 9 0;
#X connect 13 0 14 0;
#X connect 14 0 16 0;
#X connect 15 0 1 0;
#X connect 16 0 10 0;
#X connect 16 1 15 0;
#X restore 14 16 pd connect2python;
#X obj 160 424 dac~ 1 2, f 14;
#X obj 160 373 *~;
#X obj 255 379 *~;
#X obj 312 330 lop~ 5;
#X obj 362 254 f 0.5;
#X obj 362 278 clip 0 0.9;
#X msg 160 185 open sound.wav;
#X obj 42 81 t b b b, f 34;
#X msg 189 256 start;
#X obj 42 115 s start-composition;
#X obj 189 217 r start-composition;
#X obj 160 300 readsf~ 2;
#X obj 46 219 soundfiler;
#X msg 46 187 read sound.wav;
#X obj 46 243 / 44100;
#X obj 108 151 t b b;
#N canvas 588 254 724 489 composition 0;
#X obj 107 112 j-timer-seconds;
#X obj 107 30 r start-composition;
#X obj 107 77 i 1;
#X obj 107 466 s message-out;
#X obj 175 392 s message-out;
#X obj 209 82 bng 19 250 50 0 empty empty empty 0 -10 0 12 #fcfcfc #000000 #000000;
#X obj 365 428 s message-out;
#X obj 107 54 t b b;
#X obj 419 347 s message-out;
#X obj 400 256 s message-out;
#X obj 107 246 sel 0 255 357 446 800, f 28;
#X floatatom 61 145 5 0 0 0 - - - 0;
#X msg 175 360 bulb1 40000 65535 65535 3500 100;
#X msg 107 434 bulb1 3000 65535 65535 3500 100;
#X msg 365 396 bulb1 2000 65535 65535 3500 2000;
#X msg 419 315 bulb1 40000 65535 65535 3500 100;
#X msg 400 224 bulb1 2000 65535 65535 3500 200;
#X obj 44 43 r stop;
#X obj 44 67 i 0;
#X connect 0 0 11 0;
#X connect 0 0 10 0;
#X connect 1 0 7 0;
#X connect 2 0 0 0;
#X connect 5 0 0 1;
#X connect 7 0 2 0;
#X connect 7 1 5 0;
#X connect 10 0 13 0;
#X connect 10 1 12 0;
#X connect 10 2 14 0;
#X connect 10 3 15 0;
#X connect 10 4 16 0;
#X connect 12 0 4 0;
#X connect 13 0 3 0;
#X connect 14 0 6 0;
#X connect 15 0 8 0;
#X connect 16 0 9 0;
#X connect 17 0 18 0;
#X connect 18 0 0 0;
#X restore 404 127 pd composition;
#X obj 42 57 r init;
#X msg 250 272 stop;
#N canvas 124 271 1199 601 manually-set-lights 0;
#X obj 194 169 hsl 162 19 0 127 0 0 empty empty empty -2 -10 0 12 #fcfcfc #000000 #000000 0 1;
#X obj 279 253 / 127;
#X obj 279 277 * 65535;
#X obj 281 492 s message-out;
#X obj 354 329 t b a;
#X obj 377 174 hsl 162 19 0 127 0 0 empty empty empty -2 -10 0 12 #fcfcfc #000000 #000000 0 1;
#X obj 354 280 / 127;
#X obj 354 304 * 65535;
#X obj 533 263 t b a;
#X obj 536 190 hsl 162 19 0 127 0 0 empty empty empty -2 -10 0 12 #fcfcfc #000000 #000000 0 1;
#X obj 533 214 / 127;
#X obj 533 238 * 65535;
#X obj 490 310 s bang-list;
#X obj 205 292 r bang-list;
#X obj 631 285 t b a;
#X obj 634 212 hsl 162 19 0 127 0 0 empty empty empty -2 -10 0 12 #fcfcfc #000000 #000000 0 1;
#X obj 631 236 / 127;
#X obj 588 332 s bang-list;
#X obj 825 314 t b a;
#X obj 828 241 hsl 162 19 0 127 0 0 empty empty empty -2 -10 0 12 #fcfcfc #000000 #000000 0 1;
#X obj 825 265 / 127;
#X obj 782 361 s bang-list;
#X obj 825 289 * 9000;
#X obj 631 260 * 9000;
#X obj 279 409 list prepend bulb1;
#X obj 279 433 list trim;
#X msg 73 231 bulb\$1;
#X obj 73 108 / 127;
#X obj 73 156 + 0.49999;
#X obj 73 180 i;
#X obj 99 44 hsl 162 19 0 127 0 0 empty empty empty -2 -10 0 12 #fcfcfc #000000 #000000 0 1;
#X obj 73 204 + 1;
#X obj 73 132 * 5;
#X obj 51 24 inlet;
#X text 102 20 set bulb;
#X obj 275 123 inlet;
#X text 329 125 hue;
#X obj 394 138 inlet;
#X text 448 142 saturation;
#X obj 588 125 inlet;
#X text 642 129 brightnesse;
#X obj 724 161 inlet;
#X text 778 165 Kelvin;
#X obj 851 174 inlet;
#X text 905 178 time;
#X obj 279 363 pack 0 65535 65535 9000 1000, f 64;
#X obj 145 430 list store;
#X obj 145 454 print see-vals;
#X obj 137 381 bng 19 250 50 0 empty empty empty 0 -10 0 12 #fcfcfc #000000 #000000;
#X obj 27 360 outlet;
#X connect 0 0 1 0;
#X connect 1 0 2 0;
#X connect 2 0 45 0;
#X connect 4 0 45 0;
#X connect 4 1 45 1;
#X connect 5 0 6 0;
#X connect 6 0 7 0;
#X connect 7 0 4 0;
#X connect 8 0 12 0;
#X connect 8 1 45 2;
#X connect 9 0 10 0;
#X connect 10 0 11 0;
#X connect 11 0 8 0;
#X connect 13 0 45 0;
#X connect 14 0 17 0;
#X connect 14 1 45 3;
#X connect 15 0 16 0;
#X connect 16 0 23 0;
#X connect 18 0 21 0;
#X connect 18 1 45 4;
#X connect 19 0 20 0;
#X connect 20 0 22 0;
#X connect 22 0 18 0;
#X connect 23 0 14 0;
#X connect 24 0 25 0;
#X connect 25 0 3 0;
#X connect 26 0 24 1;
#X connect 27 0 32 0;
#X connect 28 0 29 0;
#X connect 29 0 31 0;
#X connect 30 0 27 0;
#X connect 31 0 26 0;
#X connect 31 0 49 0;
#X connect 32 0 28 0;
#X connect 33 0 27 0;
#X connect 35 0 1 0;
#X connect 37 0 6 0;
#X connect 39 0 10 0;
#X connect 41 0 16 0;
#X connect 43 0 19 0;
#X connect 45 0 24 0;
#X connect 45 0 46 1;
#X connect 46 0 47 0;
#X connect 48 0 46 0;
#X restore 712 443 pd manually-set-lights;
#X f 43;
#X obj 701 229 vsl 19 162 0 127 0 0 empty empty empty 0 -9 0 12 #fcfcfc #000000 #000000 0 1;
#X obj 751 222 vsl 19 162 0 127 0 0 empty empty empty 0 -9 0 12 #fcfcfc #000000 #000000 0 1;
#X floatatom 712 467 5 0 0 0 - - - 0;
#X obj 46 278 s length-s;
#X obj 411 178 bng 19 250 50 0 empty empty empty 0 -10 0 12 #fcfcfc #000000 #000000;
#X obj 411 202 s stop;
#X obj 252 238 r stop;
#X obj 800 217 vsl 19 162 0 127 0 0 empty empty empty 0 -9 0 12 #fcfcfc #000000 #000000 0 1;
#X obj 846 216 vsl 19 162 0 127 0 0 empty empty empty 0 -9 0 12 #fcfcfc #000000 #000000 0 1;
#X obj 903 222 vsl 19 162 0 127 0 0 empty empty empty 0 -9 0 12 #fcfcfc #000000 #000000 0 1;
#X obj 952 237 vsl 19 162 0 127 0 0 empty empty empty 0 -9 0 12 #fcfcfc #000000 #000000 0 1;
#X connect 5 0 4 0;
#X connect 6 0 4 1;
#X connect 7 0 5 1;
#X connect 7 0 6 1;
#X connect 8 0 9 0;
#X connect 9 0 7 0;
#X connect 10 0 15 0;
#X connect 11 0 13 0;
#X connect 11 1 19 0;
#X connect 11 2 8 0;
#X connect 12 0 15 0;
#X connect 14 0 12 0;
#X connect 15 0 5 0;
#X connect 15 1 6 0;
#X connect 16 0 18 0;
#X connect 17 0 16 0;
#X connect 18 0 27 0;
#X connect 19 0 17 0;
#X connect 19 1 10 0;
#X connect 21 0 11 0;
#X connect 22 0 15 0;
#X connect 23 0 26 0;
#X connect 24 0 23 0;
#X connect 25 0 23 1;
#X connect 28 0 29 0;
#X connect 30 0 22 0;
#X connect 31 0 23 2;
#X connect 32 0 23 3;
#X connect 33 0 23 4;
#X connect 34 0 23 5;
