#N canvas 803 95 522 646 12;
#X obj 72 26 inlet;
#X text 124 24 trigg;
#X text 160 302 is value taken?;
#X obj 128 268 array define \$0-howdy \$1;
#X obj 72 340 tabread \$0-howdy;
#X obj 72 98 random \$1;
#X obj 72 533 + 1;
#X obj 72 568 outlet;
#X obj 72 305 t a a, f 11;
#X obj 72 364 sel 0 1;
#X obj 72 433 i, f 11;
#X obj 169 40 r \$0-redo;
#X obj 95 398 s \$0-redo;
#X obj 104 156 array sum \$0-howdy;
#X obj 72 122 t a b;
#X obj 105 184 >= \$1;
#X obj 132 568 tabwrite \$0-howdy;
#X obj 72 457 t a a;
#X obj 132 536 i 1;
#X obj 132 498 t b a;
#X msg 128 240 const 0;
#X obj 270 393 outlet;
#X obj 292 49 inlet;
#X obj 292 103 s \$0-change-num;
#X obj 292 73 max 0;
#X obj 160 184 r \$0-change-num;
#X obj 151 100 r \$0-change-num;
#X obj 315 227 r \$0-change-num;
#X obj 315 267 array size \$0-howdy;
#X obj 105 208 sel 0 1;
#X obj 72 257 i;
#X obj 169 64 del 1;
#X connect 0 0 5 0;
#X connect 4 0 9 0;
#X connect 5 0 14 0;
#X connect 6 0 7 0;
#X connect 8 0 4 0;
#X connect 8 1 10 1;
#X connect 9 0 10 0;
#X connect 9 1 12 0;
#X connect 10 0 17 0;
#X connect 11 0 31 0;
#X connect 13 0 15 0;
#X connect 14 0 30 1;
#X connect 14 1 13 0;
#X connect 15 0 29 0;
#X connect 17 0 6 0;
#X connect 17 1 19 0;
#X connect 18 0 16 0;
#X connect 19 0 18 0;
#X connect 19 1 16 1;
#X connect 20 0 3 0;
#X connect 22 0 24 0;
#X connect 24 0 23 0;
#X connect 25 0 15 1;
#X connect 26 0 5 1;
#X connect 27 0 28 0;
#X connect 29 0 30 0;
#X connect 29 1 20 0;
#X connect 29 1 21 0;
#X connect 30 0 8 0;
#X connect 31 0 5 0;
