#N canvas 263 88 450 300 12;
#X obj 89 171 * 6.28319;
#X obj 90 13 inlet;
#X obj 90 37 clip 0 1;
#X obj 89 240 outlet;
#X obj 90 65 - 0.5;
#X obj 90 89 * 0.5;
#X obj 89 196 cos;
#X connect 0 0 6 0;
#X connect 1 0 2 0;
#X connect 2 0 4 0;
#X connect 4 0 5 0;
#X connect 5 0 0 0;
#X connect 6 0 3 0;
