#N canvas 179 204 821 635 12;
#X obj 104 451 s message-out;
#X obj 97 216 % 600;
#X obj 97 240 / 600;
#X obj 96 273 scale-cos;
#X obj 170 216 % 600;
#X obj 170 240 / 600;
#X obj 169 273 scale-cos;
#X obj 114 138 t a a;
#X obj 112 88 inlet;
#X obj 97 192 + \$1;
#X text 357 97 offset hue;
#X text 354 119 hue scale;
#X text 361 140 hue offset;
#X obj 96 307 * \$2;
#X obj 96 331 + \$3;
#X text 360 222 offset bright;
#X text 357 244 bright scale;
#X text 364 265 bright offset;
#X obj 170 192 + \$4;
#X obj 169 307 * \$5;
#X obj 169 331 + \$6;
#X msg 103 416 \$3 \$1 65535 \$2 3500 200;
#X obj 158 382 pack 0 0 s;
#X obj 254 349 symbol \$7;
#X obj 254 325 loadbang;
#X connect 1 0 2 0;
#X connect 2 0 3 0;
#X connect 3 0 13 0;
#X connect 4 0 5 0;
#X connect 5 0 6 0;
#X connect 6 0 19 0;
#X connect 7 0 9 0;
#X connect 7 1 18 0;
#X connect 8 0 7 0;
#X connect 9 0 1 0;
#X connect 13 0 14 0;
#X connect 14 0 22 0;
#X connect 18 0 4 0;
#X connect 19 0 20 0;
#X connect 20 0 22 1;
#X connect 21 0 0 0;
#X connect 22 0 21 0;
#X connect 23 0 22 2;
#X connect 24 0 23 0;
